<?xml version="1.0" encoding="UTF-8"?>
<svg id="b" data-name="Layer 2" xmlns="http://www.w3.org/2000/svg" width="125.18" height="110.777" viewBox="0 0 125.18 110.777">
  <g id="c" data-name="Layer 1">
    <g>
      <g>
        <polygon points="125.18 0 125.18 110.777 99.563 110.777 99.563 102.296 115.487 102.296 115.487 8.481 99.563 8.481 99.563 0 125.18 0" fill="#be031e"/>
        <path d="M112.238,102.24c-.866.004-1.589.01-2.129.02-4.563,0-9.66-2.88-10.546-3v11.517h22.216v-8.564" fill="#be031e"/>
        <path d="M112.238,8.537c-.866-.004-1.589-.01-2.129-.02-4.563,0-9.66,2.88-10.546,3V0h22.216v8.564" fill="#be031e"/>
      </g>
      <g>
        <polygon points="0 110.777 0 0 25.617 0 25.617 8.481 9.693 8.481 9.693 102.296 25.617 102.296 25.617 110.777 0 110.777" fill="#be031e"/>
        <path d="M12.942,8.537c.866-.004,1.589-.01,2.129-.02,4.563,0,9.66,2.88,10.546,3V0H3.402v8.564" fill="#be031e"/>
        <path d="M12.942,102.24c.866.004,1.589.01,2.129.02,4.563,0,9.66-2.88,10.546-3v11.517H3.402v-8.564" fill="#be031e"/>
      </g>
    </g>
    <path d="M65.123,8.021v20.516h16.553v13.118h-16.553v33.93c0,8.941,2.709,12.804,8.858,12.804,2.776,0,4.886-.296,6.507-.698l.357,13.577c-2.668.953-7.11,1.694-12.55,1.694-6.307,0-11.633-2.005-14.993-5.577-3.837-4.016-5.655-10.309-5.655-20.269v-35.461h-9.922v-13.118h9.922V12.31l17.476-4.29Z"/>
  </g>
</svg>