<?xml version="1.0" encoding="UTF-8"?>
<svg id="b" data-name="Layer 2" xmlns="http://www.w3.org/2000/svg" width="125.18" height="110.777" viewBox="0 0 125.18 110.777">
  <g id="c" data-name="Layer 1">
    <g>
      <g>
        <polygon points="125.18 0 125.18 110.777 99.563 110.777 99.563 102.296 115.487 102.296 115.487 8.481 99.563 8.481 99.563 0 125.18 0" fill="#be031e"/>
        <path d="M112.238,102.24c-.866.004-1.589.01-2.129.02-4.563,0-9.66-2.88-10.546-3v11.517h22.216v-8.564" fill="#be031e"/>
        <path d="M112.238,8.537c-.866-.004-1.589-.01-2.129-.02-4.563,0-9.66,2.88-10.546,3V0h22.216v8.564" fill="#be031e"/>
      </g>
      <g>
        <polygon points="0 110.777 0 0 25.617 0 25.617 8.481 9.693 8.481 9.693 102.296 25.617 102.296 25.617 110.777 0 110.777" fill="#be031e"/>
        <path d="M12.942,8.537c.866-.004,1.589-.01,2.129-.02,4.563,0,9.66,2.88,10.546,3V0H3.402v8.564" fill="#be031e"/>
        <path d="M12.942,102.24c.866.004,1.589.01,2.129.02,4.563,0,9.66-2.88,10.546-3v11.517H3.402v-8.564" fill="#be031e"/>
      </g>
    </g>
    <path d="M81.676,28.537h-16.553V8.021l-17.476,4.29v16.227h-9.922v13.118h9.922v35.461c0,9.959,1.818,16.253,5.655,20.269,3.36,3.572,8.687,5.577,14.993,5.577,5.439,0,9.882-.741,12.55-1.694l-.357-13.577c-1.621.402-3.73.698-6.507.698-6.149,0-8.858-3.863-8.858-12.804v-32.37l-.869-1.507s.001,0,.002,0l-3.198-5.698.827-.435,2.496,3.849c.82,1.39,2.338,2.209,3.949,2.232h13.346v-13.118Z"/>
  </g>
</svg>